<svg xmlns="http://www.w3.org/2000/svg" width="24" height="24" viewBox="0 0 24 24">
  <g id="IconoR_16Cuanto_debo" data-name="IconoR_16Cuanto debo" transform="translate(12 12)">
    <g id="IconoR_16Cuanto_debo-2" data-name="IconoR_16Cuanto debo" transform="translate(-12 -12)">
      <g id="Borde">
        <path id="Trazado_11379" data-name="Trazado 11379" d="M20.166,9.335a7.435,7.435,0,1,0-14.87,0,6.944,6.944,0,0,0,.461,2.424c-.461.089-.758.119-1,.149a4.966,4.966,0,0,0-1.026.178A1.651,1.651,0,0,0,2.56,13.647c0,1.487,0,4.848,0,4.862,0,1.13.684,1.7,2.037,1.7.729,0,1.77.089,2.691.149l1.784.119h.089a4.58,4.58,0,0,0,1.487-.342A9.606,9.606,0,0,0,13.4,18.495l1.948-1.71.461-.506a.52.52,0,0,0,.089-.253,7.435,7.435,0,0,0,4.268-6.691Zm-7.509,8.312a8.565,8.565,0,0,1-2.424,1.487,3.331,3.331,0,0,1-1.145.268l-1.71-.149c-.937-.074-2.007-.164-2.781-.164s-.922-.223-.922-.58V13.632a.535.535,0,0,1,.372-.461,5.739,5.739,0,0,1,.862-.164,3.934,3.934,0,0,0,1.309-.193,1.234,1.234,0,0,0,.1.193,6.93,6.93,0,0,0,.446.7,5.948,5.948,0,0,0-2.379.58.55.55,0,0,0-.253.743.565.565,0,0,0,.743.253,4.684,4.684,0,0,1,2.171-.461,8.922,8.922,0,0,1,1.338.208.55.55,0,0,0,.52-.089c.714-.55,2.617-2.007,2.974-2.245s.714-.372.937-.208.193.268.193.3a.743.743,0,0,1-.164.431L8.969,16.785a.565.565,0,0,0,0,.788.506.506,0,0,0,.4.193.654.654,0,0,0,.387-.149l1.2-1.115a8.089,8.089,0,0,0,1.814.238,5.948,5.948,0,0,0,1.041-.089Zm2.1-2.349A6.29,6.29,0,0,1,12,15.58l1.636-1.487.089-.1a1.888,1.888,0,0,0,.431-1.338,1.487,1.487,0,0,0-.535-1.071l-.164-.089a1.651,1.651,0,0,0,1.19-1.576,1.249,1.249,0,0,0-.253-.892L14.188,8.8a1.74,1.74,0,0,0-.312-.208,8.283,8.283,0,0,0-1.041-.312,3.9,3.9,0,0,0-.7-.149L12.047,8a.743.743,0,0,1,0-.193.669.669,0,0,1,.714-.565.729.729,0,0,1,.729.476.556.556,0,1,0,1.086-.238,1.74,1.74,0,0,0-1.249-1.264V6.093a.565.565,0,1,0-1.115,0v.149a1.68,1.68,0,0,0-1.279,1.576,1.338,1.338,0,0,0,.312.937,1.294,1.294,0,0,0,.238.253,1.219,1.219,0,0,0,.283.134l.729.208.833.238.119.1V10c0,.312-.327.491-.714.491a.684.684,0,0,1-.7-.446.555.555,0,1,0-1.1.149,1.576,1.576,0,0,0,.922,1.175,3.524,3.524,0,0,0-.52.283c-.4.253-2.141,1.576-2.974,2.171a.476.476,0,0,1-.193,0,1.056,1.056,0,0,0-.149-.208,5.16,5.16,0,0,1-.729-1.16h0a3.271,3.271,0,0,1-.268-.52,6.156,6.156,0,0,1-.58-2.6,6.3,6.3,0,1,1,8.312,5.948Z" transform="translate(1.247 0.925)" fill="#dd141d"/>
        <rect id="Rectángulo_6630" data-name="Rectángulo 6630" width="24" height="24" transform="translate(24) rotate(90)" fill="none"/>
      </g>
    </g>
  </g>
</svg>
