<svg xmlns="http://www.w3.org/2000/svg" width="24" height="24" viewBox="0 0 24 24">
  <g id="IconoR_24Movimientos" transform="translate(12 12)">
    <g id="IconoR_24Movimientos-2" data-name="IconoR_24Movimientos" transform="translate(-12 -12)">
      <g id="Borde">
        <path id="Trazado_9841" data-name="Trazado 9841" d="M12,7.92A4.07,4.07,0,1,1,8,12a4.07,4.07,0,0,1,4-4.08m0-1A5.05,5.05,0,1,0,15.607,8.4,5.07,5.07,0,0,0,12,6.92Z" fill="#dd141d"/>
        <path id="Trazado_9842" data-name="Trazado 9842" d="M13.35,12.2a1.53,1.53,0,0,0-.18-.19,1.09,1.09,0,0,0-.24-.16,8.11,8.11,0,0,0-.93-.29l-.62-.16-.13-.15v-.23a.74.74,0,0,1,.81-.66.78.78,0,0,1,.79.54.373.373,0,1,0,.73-.15A1.45,1.45,0,0,0,12.4,9.67V9.43a.38.38,0,1,0-.75,0v.22A1.46,1.46,0,0,0,10.47,11a1.12,1.12,0,0,0,.26.77.92.92,0,0,0,.19.2.88.88,0,0,0,.24.11l.64.19a6.51,6.51,0,0,1,.81.24l.08.05.07.08c.06.08.06.11.06.26V13c0,.32-.37.59-.79.59a.77.77,0,0,1-.79-.53.36.36,0,0,0-.42-.32.37.37,0,0,0-.32.42,1.39,1.39,0,0,0,1.15,1.11v.24a.38.38,0,1,0,.75,0v-.22a1.42,1.42,0,0,0,1.17-1.37A1.06,1.06,0,0,0,13.35,12.2Z" fill="#dd141d"/>
        <path id="Trazado_9843" data-name="Trazado 9843" d="M5.79,22.57a.55.55,0,0,1-.37-.15h0L2.94,20a.49.49,0,0,1-.21-.41.55.55,0,0,1,.2-.42l2.5-2.4a.534.534,0,0,1,.74.77L4.59,19.08h8.88a6.84,6.84,0,0,0,6.78-6.67.53.53,0,0,1,1.06,0,7.91,7.91,0,0,1-8,7.74H4.6l1.56,1.51a.53.53,0,0,1,0,.75A.54.54,0,0,1,5.79,22.57Z" fill="#dd141d"/>
        <path id="Trazado_9844" data-name="Trazado 9844" d="M3.39,11.67a.52.52,0,0,1-.53-.52,7.76,7.76,0,0,1,7.93-7.57h8.54L17.8,2.12a.523.523,0,0,1,.72-.76L21,3.69a.52.52,0,0,1,.21.38.53.53,0,0,1-.2.45l-2.5,2.34a.523.523,0,0,1-.72-.76l1.55-1.47H10.59a6.71,6.71,0,0,0-6.67,6.52.52.52,0,0,1-.53.52Z" fill="#dd141d"/>
        <rect id="Rectángulo_4830" data-name="Rectángulo 4830" width="24" height="24" fill="none"/>
      </g>
    </g>
  </g>
</svg>
