<svg id="Grupo_19801" data-name="Grupo 19801" xmlns="http://www.w3.org/2000/svg" xmlns:xlink="http://www.w3.org/1999/xlink" width="24" height="24" viewBox="0 0 24 24">
  <defs>
    <clipPath id="clip-path">
      <rect id="Rect치ngulo_6455" data-name="Rect치ngulo 6455" width="24" height="24" fill="none"/>
    </clipPath>
    <clipPath id="clip-path-2">
      <rect id="Rect치ngulo_6562" data-name="Rect치ngulo 6562" width="21.68" height="17.34" fill="#dd141d"/>
    </clipPath>
  </defs>
  <g id="Grupo_19219" data-name="Grupo 19219" clip-path="url(#clip-path)">
    <g id="Grupo_19394" data-name="Grupo 19394" transform="translate(1.32 4.406)">
      <g id="Grupo_19393" data-name="Grupo 19393" transform="translate(0 0)" clip-path="url(#clip-path-2)">
        <path id="Trazado_11217" data-name="Trazado 11217" d="M21.679,13.332a2.224,2.224,0,0,1-.45.549c-.431.428-.856.863-1.29,1.287a.387.387,0,0,0-.127.314c.008.389,0,.778,0,1.167a.638.638,0,1,1-1.27-.008c0-.375-.009-.75,0-1.124a.472.472,0,0,0-.164-.384c-.484-.475-.96-.957-1.439-1.438a.658.658,0,0,1,0-1.064q.739-.744,1.482-1.485a.327.327,0,0,0,.12-.252q-.007-2.524,0-5.048c0-.034,0-.067-.008-.123-.5.178-.976.352-1.458.523-.117.041-.08.137-.08.214,0,1.216-.024,2.433.01,3.648a1.274,1.274,0,0,1-.532,1.1,6.575,6.575,0,0,1-2.858,1.3A14.2,14.2,0,0,1,7,12.394a6.06,6.06,0,0,1-2.38-1.19A1.3,1.3,0,0,1,4.1,10.089c.032-1.222.008-2.446.014-3.669a.226.226,0,0,0-.176-.257C2.8,5.745,1.657,5.319.517,4.9A.646.646,0,0,1,.509,3.631Q5.437,1.842,10.365.053a.915.915,0,0,1,.657.02Q15.334,1.641,19.648,3.2c.4.146.806.292,1.208.443a.65.65,0,0,1,.476.608.659.659,0,0,1-.477.629c-.3.113-.606.227-.913.328a.156.156,0,0,0-.128.179q0,2.757,0,5.514a.305.305,0,0,0,.112.235c.48.478.956.961,1.439,1.438a1.21,1.21,0,0,1,.316.458Zm-2.9-9.054c-.039-.071-.1-.07-.153-.089Q14.72,2.771,10.815,1.352a.463.463,0,0,0-.344.018L3.332,3.96c-.271.1-.54.2-.834.31.058.025.083.037.11.046q3.9,1.45,7.809,2.9a.352.352,0,0,0,.262-.011l8.1-2.929M5.382,6.7c0,1.115,0,2.2,0,3.278a.385.385,0,0,0,.161.338,4.37,4.37,0,0,0,1.544.76,12.69,12.69,0,0,0,6.419.14,5.427,5.427,0,0,0,2.054-.9.388.388,0,0,0,.173-.353c-.008-.99,0-1.98,0-2.97,0-.261,0-.26-.237-.174q-2.3.833-4.6,1.666a.947.947,0,0,1-.7.006C9.263,8.14,8.332,7.8,7.4,7.452c-.665-.247-1.33-.492-2.021-.748m14.75,6.464a.635.635,0,0,0-.051-.069c-.278-.28-.559-.557-.834-.839-.069-.071-.106-.029-.153.019-.263.265-.525.531-.792.792-.075.073-.066.117,0,.186.262.256.523.514.776.778.081.084.126.073.2,0,.249-.259.506-.51.759-.765.029-.029.057-.06.092-.1" transform="translate(0.001 -0.001)" fill="#dd141d"/>
      </g>
    </g>
  </g>
</svg>
